<?xml version="1.0" standalone="no"?>
<!DOCTYPE svg PUBLIC "-//W3C//DTD SVG 20010904//EN"
 "http://www.w3.org/TR/2001/REC-SVG-20010904/DTD/svg10.dtd">
<svg version="1.0" xmlns="http://www.w3.org/2000/svg"
 width="260.000000pt" height="260.000000pt" viewBox="0 0 260.000000 260.000000"
 preserveAspectRatio="xMidYMid meet">
<metadata>
Created by potrace 1.14, written by Peter Selinger 2001-2017
</metadata>
<g transform="translate(0.000000,260.000000) scale(0.100000,-0.100000)"
fill="#000000" stroke="none">
<path d="M0 1300 l0 -1300 1300 0 1300 0 0 1300 0 1300 -1300 0 -1300 0 0
-1300z m1523 442 c26 -12 47 -26 47 -31 0 -7 39 -11 108 -11 l107 0 109 -196
c60 -107 112 -192 117 -187 4 4 53 92 109 196 l102 187 119 0 c65 0 119 -2
119 -3 0 -2 -74 -142 -165 -312 l-165 -307 0 -154 0 -154 -120 0 -120 0 0 144
0 145 -161 298 c-89 164 -165 304 -169 312 -6 11 -17 -3 -40 -48 -25 -50 -35
-61 -48 -55 -27 11 -80 17 -105 10 -27 -6 -47 -44 -47 -86 l0 -30 80 0 80 0 0
-80 0 -80 -80 0 -80 0 0 -265 0 -265 -115 0 -115 0 0 264 0 265 -47 3 -48 3 0
75 0 75 48 3 47 3 0 52 c0 78 17 125 64 174 59 63 125 85 236 80 58 -3 101
-11 133 -25z m-635 -134 l-3 -93 -248 -3 -248 -2 3 -88 3 -87 223 -3 223 -2
-3 -93 -3 -92 -222 -3 -223 -2 0 -90 0 -90 255 0 255 0 0 -95 0 -95 -375 0
-375 0 0 465 0 465 370 0 371 0 -3 -92z"/>
</g>
</svg>
